<?xml version="1.0" encoding="UTF-8"?>
<svg version="1.1" xmlns="http://www.w3.org/2000/svg" width="16" height="16">
<path d="M0 0 C0.76441406 -0.00773438 1.52882813 -0.01546875 2.31640625 -0.0234375 C5.00917609 0.48238667 5.87557827 1.13249169 7.4375 3.375 C7.8359375 5.75 7.8359375 5.75 7.8125 8.375 C7.82023437 9.24125 7.82796875 10.1075 7.8359375 11 C7.4375 13.375 7.4375 13.375 6.19140625 15.1640625 C3.98636701 16.68647267 2.66416201 16.77695611 0 16.75 C-0.76183594 16.75773437 -1.52367187 16.76546875 -2.30859375 16.7734375 C-5.18165752 16.26554754 -6.52550648 15.46212088 -8.5625 13.375 C-9.09375 11 -9.09375 11 -9.0625 8.375 C-9.0728125 7.50875 -9.083125 6.6425 -9.09375 5.75 C-8.5625 3.375 -8.5625 3.375 -6.81640625 1.5859375 C-4.31895593 0.2441531 -2.81647227 -0.02859363 0 0 Z M-0.5625 4.375 C-2.75288423 5.74668238 -2.75288423 5.74668238 -4.5625 7.375 C-3.92270151 9.40741727 -3.92270151 9.40741727 -2.5625 11.375 C-0.00730079 12.18671228 -0.00730079 12.18671228 2.4375 12.375 C2.4375 10.065 2.4375 7.755 2.4375 5.375 C1.4475 5.045 0.4575 4.715 -0.5625 4.375 Z " fill="#EC342F" transform="translate(8.5625,-0.375)"/>
<path d="M0 0 C3.5625 0.25 3.5625 0.25 7 1 C7.33 1.66 7.66 2.32 8 3 C7.030625 3.515625 6.06125 4.03125 5.0625 4.5625 C1.64608309 6.76438296 1.64608309 6.76438296 1.125 10.75 C1.08375 11.8225 1.0425 12.895 1 14 C0.01 13.34 -0.98 12.68 -2 12 C-2.36328125 9.6875 -2.36328125 9.6875 -2.3125 7 C-2.30863281 6.113125 -2.30476562 5.22625 -2.30078125 4.3125 C-2 2 -2 2 0 0 Z " fill="#8F2874" transform="translate(2,1)"/>
<path d="M0 0 C0.721875 0.495 1.44375 0.99 2.1875 1.5 C5.19606608 3.10456857 6.658337 3.4396925 10 3 C10.99 2.34 11.98 1.68 13 1 C12.25 5.75 12.25 5.75 10 8 C7.87109375 8.23046875 7.87109375 8.23046875 5.4375 8.1875 C4.22900391 8.17783203 4.22900391 8.17783203 2.99609375 8.16796875 C1 8 1 8 0 7 C-0.04092937 4.66702567 -0.04241723 2.33294775 0 0 Z " fill="#F3B01B" transform="translate(3,8)"/>
</svg>
