<?xml version="1.0" encoding="UTF-8"?>
<svg version="1.1" xmlns="http://www.w3.org/2000/svg" width="32" height="32">
<path d="M0 0 C4.8846525 2.26787438 7.73212562 5.1153475 10 10 C10.75381535 15.5997712 10.77303575 20.33499991 8.375 25.5 C3.87550404 30.23631154 0.708202 32.2601878 -5.875 32.625 C-12.0573203 32.43276367 -15.77925633 30.44801448 -20 26 C-23.40659936 20.89010096 -22.77704571 14.9484189 -22 9 C-17.44675642 -0.10648716 -9.32800796 -1.00032257 0 0 Z M-7.4375 8.1875 C-11.905713 10.46080135 -14.40024578 12.20073733 -16 17 C-10.63249847 22.70157423 -10.63249847 22.70157423 -3.25 24.125 C-2.1775 24.08375 -1.105 24.0425 0 24 C1.43274363 19.45438891 2.65570652 15.57001205 0.8125 11 C-1.71571369 6.81537044 -2.84641148 6.6014876 -7.4375 8.1875 Z " fill="#F2B01C" transform="translate(22,0)"/>
<path d="M0 0 C5.65116279 2.30232558 5.65116279 2.30232558 7 5 C6.38511719 5.25394531 5.77023438 5.50789062 5.13671875 5.76953125 C3.92435547 6.28580078 3.92435547 6.28580078 2.6875 6.8125 C1.88699219 7.14894531 1.08648437 7.48539063 0.26171875 7.83203125 C-3.39856007 9.72222705 -5.59974495 12.12237062 -7 16 C-7.20643522 19.85345749 -7.18133323 23.30833366 -6 27 C-9.40847473 25.58959667 -11.10874681 24.17498091 -13 21 C-13.860991 15.52035961 -14.19185119 9.67532554 -11.8984375 4.52734375 C-8.50347369 0.10662884 -5.6254056 -1.00453671 0 0 Z " fill="#8D2575" transform="translate(13,2)"/>
<path d="M0 0 C10.66224287 -0.62110153 10.66224287 -0.62110153 15.5 1.625 C19.41781936 5.34692839 22.16860019 8.55458406 22.625 14.0625 C21.9036256 18.60715874 21.9036256 18.60715874 19.25 20.9375 C16.52122303 22.66922385 15.02926548 23.37439083 12 24 C12.10699219 23.43152344 12.21398438 22.86304687 12.32421875 22.27734375 C13.20195823 16.62394646 12.91732971 13.13047638 10 8 C6.95885564 3.98134496 3.83638406 3.11608863 -1 2 C-0.67 1.34 -0.34 0.68 0 0 Z " fill="#EE342E" transform="translate(10,0)"/>
</svg>
