<svg xmlns="http://www.w3.org/2000/svg" width="20.48" height="20.48" fill-rule="evenodd"
    clip-rule="evenodd" image-rendering="optimizeQuality" shape-rendering="geometricPrecision"
    text-rendering="geometricPrecision" viewBox="0 0 213.33 213.33">
    <path fill-rule="nonzero" fill="#AE38D6"
        d="M145.58 68.24c0.07,-0.15 0.16,-0.31 0.26,-0.45l3.02 -5.32 -51.91 29.42 11.24 11.24 11.24 11.24 26.15 -46.13zm-22.93 58.83l-42.22 23.93c2.84,1.69 5.86,3.1 9.03,4.22 5.36,1.9 11.15,2.93 17.2,2.93 14.22,0 27.09,-5.76 36.41,-15.08 9.31,-9.32 15.08,-22.19 15.08,-36.41 0,-6.19 -1.07,-12.1 -3.05,-17.55 -1.2,-3.31 -2.73,-6.46 -4.56,-9.43l-25.49 44.97 0 0c-0.5,1.06 -1.33,1.89 -2.38,2.4l-0.03 0.01 0 0zm-51.96 29.45l-21 11.9c-2.39,1.36 -5.44,0.52 -6.8,-1.87 -0.91,-1.6 -0.83,-3.49 0.03,-4.98l12.16 -21.45c-2.91,-4.47 -5.24,-9.32 -6.91,-14.44 -1.95,-6.01 -3.01,-12.4 -3.01,-19.01 0,-16.98 6.88,-32.35 18.01,-43.48 11.13,-11.13 26.5,-18.01 43.48,-18.01 6.74,0 13.28,1.11 19.42,3.15 5.27,1.76 10.22,4.2 14.74,7.23l18.73 -10.61c1.48,-0.87 3.38,-0.94 4.98,-0.03 2.39,1.36 3.24,4.4 1.88,6.8l-10.38 18.31c3.53,4.75 6.39,10.03 8.44,15.7 2.38,6.57 3.68,13.62 3.68,20.94 0,16.98 -6.88,32.35 -18.01,43.48 -11.13,11.13 -26.5,18.01 -43.48,18.01 -7.18,0 -14.09,-1.24 -20.52,-3.52 -5.56,-1.97 -10.75,-4.72 -15.45,-8.11zm-9.92 -26.43l23.64 -41.71c0.46,-0.82 1.13,-1.5 1.95,-1.95l44.52 -25.24c-2.53,-1.35 -5.18,-2.49 -7.93,-3.41 -5.08,-1.69 -10.56,-2.61 -16.3,-2.61 -14.22,0 -27.09,5.76 -36.41,15.08 -9.31,9.32 -15.08,22.19 -15.08,36.41 0,5.58 0.87,10.93 2.5,15.93 0.85,2.6 1.89,5.11 3.11,7.5zm29.11 -31.13l-29.42 51.91 8.17 -4.63 0.04 -0.03 43.7 -24.77 -22.48 -22.48zm16.78 -98.94c29.45,0 56.11,11.94 75.41,31.24 19.3,19.3 31.24,45.96 31.24,75.41 0,29.45 -11.94,56.11 -31.24,75.41 -19.3,19.3 -45.96,31.24 -75.41,31.24 -29.45,0 -56.11,-11.94 -75.41,-31.24 -19.3,-19.3 -31.24,-45.96 -31.24,-75.41 0,-29.45 11.94,-56.11 31.24,-75.41 19.3,-19.3 45.96,-31.24 75.41,-31.24zm68.34 38.31c-17.49,-17.49 -41.65,-28.31 -68.34,-28.31 -26.69,0 -50.85,10.82 -68.34,28.31 -17.49,17.49 -28.31,41.65 -28.31,68.34 0,26.69 10.82,50.85 28.31,68.34 17.49,17.49 41.65,28.31 68.34,28.31 26.69,0 50.85,-10.82 68.34,-28.31 17.49,-17.49 28.31,-41.65 28.31,-68.34 0,-26.69 -10.82,-50.85 -28.31,-68.34z" />
</svg>